
<svg role="img" id="shop-icon" aria-labelledby="shop-icon" xmlns="http://www.w3.org/2000/svg" width="20" height="20" viewBox="0 0 20 20">
    <path
      fill="#ff655b"
      d="M8.408.01c1.087-.063 2.238.159 2.708 1.426.23.618.306 1.325.307 2.047 1.467-.098 3.278-.405 3.872 1.078.076.085.156.217.237.407.651 1.515.806 3.4 1.162 5.442.307 1.761.508 3.467 1.068 5.147.107.322-.182 1.184-.381 1.384-.416.418-1.034 1.26-1.438 1.69-.625.666-.816-.58-.411-1.011.407-.434.75-1.002 1.162-1.434.413-.432-.584-3.106-.89-4.868-.084-.477-.17-.953-.257-1.43-.052.523-.112 1.04-.17 1.543-.276 2.456-.616 4.893-.296 7.363.062.478-.4 1.03-.854 1.07-2.38.205-4.767.184-7.14-.101-1.149-.139-2.294-.331-3.423-.592-.673-.155-1.342-.282-1.574-1.022-.256-.819.104-1.913.218-2.721.168-1.188.309-2.38.42-3.576.227-2.47.374-4.501.361-6.983-.003-.62 1.07-.454 1.07.255 0 4.232-.324 7.07-.914 11.27-.093.66-.03.896.573 1.195.44.22 1.118.252 1.6.343 1.07.202 2.152.351 3.238.45 2.04.182 5.002.23 5.002 0 0-.233.79-7.156.79-11.242 0-.498-.029-1.115-.246-1.576-.292-.621-.714-.605-1.312-.605-.253 0-.81-.039-1.533-.095-.042.455-.091.898-.13 1.31-.07.732-1.143 1.4-1.038.301.046-.49.118-1.086.146-1.692-1.238-.1-2.704-.22-3.947-.294.012.367.04.727.062 1.057.045.65-.999 1.675-1.067.676-.039-.563-.064-1.173-.047-1.786-.254-.01-.488-.016-.696-.018-2.184-.015-1.452-1.293-.857-1.36.563-.064 1.125-.071 1.687-.046.078-.472.2-.926.378-1.34C6.37.452 7.273.076 8.408.01zm.308 1.553c-.966-.104-1.832-.105-2.175 1.097-.04.136-.07.278-.093.424 1.458.147 2.914.423 4.378.423l-.522-.012c-.122-1-.528-1.818-1.588-1.932z"
    />
  </svg>